<?xml version="1.0" encoding="utf-8"?>
<!-- Generator: Adobe Illustrator 21.0.2, SVG Export Plug-In . SVG Version: 6.00 Build 0)  -->
<svg version="1.1" id="Layer_1" xmlns="http://www.w3.org/2000/svg" xmlns:xlink="http://www.w3.org/1999/xlink" x="0px" y="0px"
	 viewBox="0 0 536.7 287.4" enable-background="new 0 0 536.7 287.4" xml:space="preserve">
<g>
	<polygon fill="#EA6217" points="467.2,43 464.5,42.4 459.8,41.4 410.5,90.8 400.8,100.4 414.4,95.8 419.5,90.8 464.5,45.8 	"/>
	<polygon fill="#EA6217" points="482.1,46.2 474.7,44.6 464.5,54.8 428.5,90.8 428,91.2 429.4,90.8 441.6,86.6 464.5,63.8 	"/>
	<polygon fill="#EA6217" points="489.5,47.7 464.5,72.8 455.2,82 464.5,78.9 468.8,77.4 496.9,49.3 	"/>
	<polygon fill="#EA6217" points="504.4,50.9 482.4,72.8 496,68.2 511.8,52.5 	"/>
	<polygon fill="#EA6217" points="519.2,54.1 509.6,63.6 523.2,59 526.6,55.6 	"/>
	<polygon fill="#EA6217" points="452.4,39.9 445,38.3 392.5,90.8 373.6,109.6 387.2,105 392.5,99.8 401.5,90.8 	"/>
	<polygon fill="#EA6217" points="329.5,90.8 392.5,27.8 393,27.2 392.5,27.1 385.6,25.7 320.5,90.8 264.8,146.5 278.4,141.9 
		320.5,99.8 	"/>
	<polygon fill="#EA6217" points="347.5,90.8 392.5,45.8 407.9,30.4 400.4,28.8 392.5,36.8 338.5,90.8 320.5,108.8 292,137.3 
		305.6,132.7 320.5,117.8 	"/>
	<polygon fill="#EA6217" points="392.5,63.8 422.7,33.6 415.3,32 392.5,54.8 356.5,90.8 320.5,126.8 319.2,128.1 320.5,127.6 
		332.8,123.5 365.5,90.8 	"/>
	<polygon fill="#EA6217" points="392.5,81.8 437.6,36.7 430.1,35.1 392.5,72.8 374.5,90.8 346.4,118.9 360,114.3 383.5,90.8 	"/>
	<polygon fill="#EA6217" points="256.8,235.4 256.8,234.8 256.8,226.5 248.5,234.8 215.5,267.8 221.9,270.3 248.5,243.8 	"/>
	<polygon fill="#EA6217" points="257,253.3 256.9,244.4 248.5,252.8 228.4,272.9 234.9,275.4 248.5,261.8 	"/>
	<polygon fill="#EA6217" points="257,262.2 248.5,270.8 241.3,277.9 247.8,280.5 248.5,279.8 257.1,271.2 	"/>
	<polygon fill="#EA6217" points="254.2,283 257.2,284.2 257.2,280.1 	"/>
	<polygon fill="#EA6217" points="185.5,162.8 248.5,99.8 257.5,90.8 320.5,27.8 329.5,18.8 333.6,14.6 326.2,13 320.5,18.8 
		248.5,90.8 176.5,162.8 112.2,227.1 118.6,229.6 176.5,171.8 	"/>
	<polygon fill="#EA6217" points="203.5,162.8 248.5,117.8 275.5,90.8 320.5,45.8 347.5,18.8 348.5,17.8 341.1,16.2 338.5,18.8 
		320.5,36.8 266.5,90.8 248.5,108.8 194.5,162.8 176.5,180.8 125.1,232.2 131.6,234.7 176.5,189.8 	"/>
	<polygon fill="#EA6217" points="221.5,162.8 248.5,135.8 293.5,90.8 320.5,63.8 363.3,20.9 355.9,19.4 320.5,54.8 284.5,90.8 
		248.5,126.8 212.5,162.8 176.5,198.8 140.5,234.8 138,237.3 144.5,239.8 149.5,234.8 176.5,207.8 	"/>
	<polygon fill="#EA6217" points="176.5,234.8 163.8,247.4 170.3,250 176.5,243.8 185.5,234.8 248.5,171.8 257.5,162.8 262.7,157.6 
		264.7,146.6 248.5,162.8 	"/>
	<polygon fill="#EA6217" points="194.5,234.8 176.8,252.5 183.2,255.1 203.5,234.8 248.5,189.8 258.7,179.6 260.7,168.6 
		248.5,180.8 	"/>
	<polygon fill="#EA6217" points="248.5,207.8 256.6,199.7 256.5,191.5 256.7,190.6 248.5,198.8 212.5,234.8 189.7,257.6 
		196.1,260.1 221.5,234.8 	"/>
	<polygon fill="#EA6217" points="248.5,225.8 256.7,217.6 256.6,208.6 248.5,216.8 230.5,234.8 202.6,262.7 209,265.2 239.5,234.8 	
		"/>
	<polygon fill="#EA6217" points="113.5,162.8 176.5,99.8 185.5,90.8 248.5,27.8 257.5,18.8 271.2,5 259.4,7.8 248.5,18.8 
		176.5,90.8 104.5,162.8 60.5,206.7 67,209.3 104.5,171.8 	"/>
	<polygon fill="#EA6217" points="131.5,162.8 176.5,117.8 203.5,90.8 248.5,45.8 275.5,18.8 289.1,5.2 281.7,3.6 266.5,18.8 
		248.5,36.8 194.5,90.8 176.5,108.8 122.5,162.8 104.5,180.8 73.4,211.8 79.9,214.4 104.5,189.8 	"/>
	<polygon fill="#EA6217" points="149.5,162.8 176.5,135.8 221.5,90.8 248.5,63.8 293.5,18.8 303.9,8.3 296.5,6.7 284.5,18.8 
		248.5,54.8 212.5,90.8 176.5,126.8 140.5,162.8 104.5,198.8 86.4,216.9 92.8,219.5 104.5,207.8 	"/>
	<polygon fill="#EA6217" points="176.5,225.8 239.5,162.8 248.5,153.8 311.5,90.8 320.5,81.8 378.2,24.1 370.8,22.5 320.5,72.8 
		302.5,90.8 248.5,144.8 230.5,162.8 176.5,216.8 158.5,234.8 150.9,242.3 157.4,244.9 167.5,234.8 	"/>
	<polygon fill="#EA6217" points="176.5,153.8 239.5,90.8 248.5,81.8 311.5,18.8 318.8,11.5 311.4,9.9 302.5,18.8 248.5,72.8 
		230.5,90.8 176.5,144.8 158.5,162.8 104.5,216.8 99.3,222 104.5,224 105.7,224.5 167.5,162.8 	"/>
	<polygon fill="#EA6217" points="41.5,162.8 104.5,99.8 113.5,90.8 176.5,27.8 176.9,27.4 176.5,27.5 165.1,30.1 104.5,90.8 
		32.5,162.8 9.4,185.9 9.4,186.6 15.3,188.9 32.5,171.8 	"/>
	<polygon fill="#EA6217" points="41.5,90.8 82.6,49.7 70.8,52.5 32.5,90.8 7.4,115.9 7.6,124.6 32.5,99.8 	"/>
	<polygon fill="#EA6217" points="59.5,90.8 104.5,45.8 106.2,44.1 104.5,44.5 94.4,46.9 50.5,90.8 32.5,108.8 7.9,133.4 8.1,142.1 
		32.5,117.8 	"/>
	<polygon fill="#EA6217" points="77.5,90.8 104.5,63.8 129.8,38.5 118,41.3 104.5,54.8 68.5,90.8 32.5,126.8 8.4,150.9 8.6,159.6 
		32.5,135.8 	"/>
	<polygon fill="#EA6217" points="104.5,117.8 131.5,90.8 176.5,45.8 200.5,21.8 188.7,24.6 176.5,36.8 122.5,90.8 104.5,108.8 
		50.5,162.8 32.5,180.8 21.8,191.5 28.2,194 32.5,189.8 59.5,162.8 	"/>
	<polygon fill="#EA6217" points="104.5,135.8 149.5,90.8 176.5,63.8 221.5,18.8 224.1,16.2 213.1,18.8 212.3,19 176.5,54.8 
		140.5,90.8 104.5,126.8 68.5,162.8 34.7,196.6 41.2,199.1 77.5,162.8 	"/>
	<polygon fill="#EA6217" points="104.5,153.8 167.5,90.8 176.5,81.8 239.5,18.8 247.7,10.6 235.9,13.4 230.5,18.8 176.5,72.8 
		158.5,90.8 104.5,144.8 86.5,162.8 47.6,201.7 54.1,204.2 95.5,162.8 	"/>
	<polygon fill="#EA6217" points="35.4,60.8 32.5,61.5 23.6,63.6 6.4,80.9 6.6,89.6 32.5,63.8 	"/>
	<polygon fill="#EA6217" points="32.5,153.8 95.5,90.8 104.5,81.8 153.3,32.9 141.5,35.7 104.5,72.8 86.5,90.8 32.5,144.8 
		14.5,162.8 8.9,168.4 9.1,177.1 23.5,162.8 	"/>
	<polygon fill="#EA6217" points="6,67.8 6.1,72.1 11.8,66.4 	"/>
	<polygon fill="#EA6217" points="32.5,81.8 59,55.3 47.2,58 32.5,72.8 14.5,90.8 6.9,98.4 7.1,107.1 23.5,90.8 	"/>
</g>
</svg>
