<?xml version="1.0" encoding="utf-8"?>
<!-- Generator: Adobe Illustrator 21.0.2, SVG Export Plug-In . SVG Version: 6.00 Build 0)  -->
<svg version="1.1" id="Layer_1" xmlns="http://www.w3.org/2000/svg" xmlns:xlink="http://www.w3.org/1999/xlink" x="0px" y="0px"
	 viewBox="0 0 556.5 68.4" enable-background="new 0 0 556.5 68.4" xml:space="preserve">
<path fill="#EA6217" d="M205.6,68.4l-4.4-1.2l1.3-4.8l3.7,1l7.4-0.3l0.2,5L205.6,68.4z M225.8,67.6l-0.2-5l12-0.5l0.2,5L225.8,67.6z
	 M249.8,66.7l-0.2-5l12-0.5l0.2,5L249.8,66.7z M273.7,65.8l-0.2-5l12-0.5l0.2,5L273.7,65.8z M297.7,64.9l-0.2-5l12-0.5l0.2,5
	L297.7,64.9z M189.6,64L178,60.9l1.3-4.8l11.6,3.1L189.6,64z M321.7,63.9l-0.2-5l12-0.5l0.2,5L321.7,63.9z M345.7,63l-0.2-5l12-0.5
	l0.2,5L345.7,63z M369.7,62.1l-0.2-5l12-0.5l0.2,5L369.7,62.1z M393.6,61.2l-0.2-5l12-0.5l0.2,5L393.6,61.2z M417.6,60.3l-0.2-5
	l12-0.5l0.2,5L417.6,60.3z M441.6,59.4l-0.2-5l12-0.5l0.2,5L441.6,59.4z M465.6,58.5l-0.2-5l12-0.5l0.2,5L465.6,58.5z M166.4,57.7
	l-11.6-3.1l1.3-4.8l11.6,3.1L166.4,57.7z M489.6,57.6l-0.2-5l12-0.5l0.2,5L489.6,57.6z M513.6,56.7l-0.2-5l12-0.5l0.2,5L513.6,56.7z
	 M537.5,55.7l0-0.4l-8.9-2.3l1.2-4.8l26.6,6.8L537.5,55.7z M143.3,51.5l-11.6-3.1l1.3-4.8l11.6,3.1L143.3,51.5z M517,50.1l-11.6-3
	l1.2-4.8l11.6,3L517,50.1z M120.1,45.2L108.5,42l1.3-4.8l11.6,3.1L120.1,45.2z M493.8,44.2l-11.6-3l1.2-4.8l11.6,3L493.8,44.2z
	 M96.9,38.9l-11.6-3.1l1.3-4.8l11.6,3.1L96.9,38.9z M470.5,38.2l-11.6-3l1.2-4.8l11.6,3L470.5,38.2z M73.8,32.6l-11.6-3.1l1.3-4.8
	l11.6,3.1L73.8,32.6z M447.2,32.3l-11.6-3l1.2-4.8l11.6,3L447.2,32.3z M50.6,26.3L39,23.2l1.3-4.8l11.6,3.1L50.6,26.3z M424,26.3
	l-11.6-3l1.2-4.8l11.6,3L424,26.3z M400.7,20.4l-11.6-3l1.2-4.8l11.6,3L400.7,20.4z M27.5,20.1L0,12.6l19.4-0.7l0,0.8l9.3,2.5
	L27.5,20.1z M31.6,16.5l-0.2-5l12-0.4l0.2,5L31.6,16.5z M55.6,15.6l-0.2-5l12-0.4l0.2,5L55.6,15.6z M79.6,14.7l-0.2-5l12-0.4l0.2,5
	L79.6,14.7z M377.5,14.4l-11.6-3l1.2-4.8l11.6,3L377.5,14.4z M103.6,13.8l-0.2-5l12-0.4l0.2,5L103.6,13.8z M127.5,12.9l-0.2-5
	l12-0.4l0.2,5L127.5,12.9z M151.5,12l-0.2-5l12-0.4l0.2,5L151.5,12z M175.5,11.1l-0.2-5l12-0.4l0.2,5L175.5,11.1z M199.5,10.2
	l-0.2-5l12-0.4l0.2,5L199.5,10.2z M223.5,9.4l-0.2-5l12-0.4l0.2,5L223.5,9.4z M354.2,8.5l-11.6-3l1.2-4.8l11.6,3L354.2,8.5z
	 M247.5,8.5l-0.2-5l12-0.4l0.2,5L247.5,8.5z M271.4,7.6l-0.2-5l12-0.4l0.2,5L271.4,7.6z M295.4,6.7l-0.2-5l12-0.4l0.2,5L295.4,6.7z
	 M319.4,5.8l-0.2-5l12-0.4l0.2,5L319.4,5.8z"/>
</svg>
