<?xml version="1.0" encoding="utf-8"?>
<!-- Generator: Adobe Illustrator 21.0.2, SVG Export Plug-In . SVG Version: 6.00 Build 0)  -->
<svg version="1.1" id="Layer_1" xmlns="http://www.w3.org/2000/svg" xmlns:xlink="http://www.w3.org/1999/xlink" x="0px" y="0px"
	 viewBox="0 0 565 92.6" enable-background="new 0 0 565 92.6" xml:space="preserve">
<g>
	<polygon fill="#EA6217" points="21.7,88 0,87.7 20.7,81.3 21.3,83 21.8,83 21.8,84.6 22.2,86 21.7,86.2 	"/>
	<path fill="#EA6217" d="M303.5,92.6l-7.3-0.1l0.1-5l6.4,0.1L307,86l1.7,4.7L303.5,92.6z M284.2,92.3l-11.9-0.2l0.1-5l11.9,0.2
		L284.2,92.3z M260.4,91.9l-11.9-0.2l0.1-5l11.9,0.2L260.4,91.9z M236.5,91.5l-11.9-0.2l0.1-5l11.9,0.2L236.5,91.5z M212.6,91.1
		l-11.9-0.2l0.1-5l11.9,0.2L212.6,91.1z M188.8,90.7l-11.9-0.2l0.1-5l11.9,0.2L188.8,90.7z M164.9,90.3L153,90.2l0.1-5l11.9,0.2
		L164.9,90.3z M141,90l-11.9-0.2l0.1-5l11.9,0.2L141,90z M117.2,89.6l-11.9-0.2l0.1-5l11.9,0.2L117.2,89.6z M93.3,89.2L81.4,89
		l0.1-5l11.9,0.2L93.3,89.2z M69.4,88.8l-11.9-0.2l0.1-5l11.9,0.2L69.4,88.8z M45.6,88.4l-11.9-0.2l0.1-5l11.9,0.2L45.6,88.4z
		 M319.9,86.8l-1.7-4.7l11.2-4l1.7,4.7L319.9,86.8z M342.4,78.8l-1.7-4.7l11.2-4l1.7,4.7L342.4,78.8z M364.9,70.8l-1.7-4.7l11.2-4
		l1.7,4.7L364.9,70.8z M387.4,62.9l-1.7-4.7l11.2-4l1.7,4.7L387.4,62.9z M409.9,54.9l-1.7-4.7l11.2-4l1.7,4.7L409.9,54.9z
		 M432.4,46.9l-1.7-4.7l11.2-4l1.7,4.7L432.4,46.9z M454.9,39l-1.7-4.7l11.2-4l1.7,4.7L454.9,39z M477.4,31l-1.7-4.7l11.2-4l1.7,4.7
		L477.4,31z M499.9,23l-1.7-4.7l11.2-4l1.7,4.7L499.9,23z M522.4,15.1l-1.7-4.7l11.2-4l1.7,4.7L522.4,15.1z"/>
	<polygon fill="#EA6217" points="544.9,7.1 544.3,5.3 543.8,5.4 543.8,3.9 543.3,2.4 543.7,2.2 543.7,0.4 565,0 	"/>
	<path fill="#EA6217" d="M32.2,83l-1.5-4.8l11.4-3.5l1.5,4.8L32.2,83z M55,75.9l-1.5-4.8l11.4-3.5l1.5,4.8L55,75.9z M77.7,68.9
		l-1.5-4.8l11.4-3.5l1.5,4.8L77.7,68.9z M100.4,61.9l-1.5-4.8l11.4-3.5l1.5,4.8L100.4,61.9z M123.1,54.9l-1.5-4.8l11.4-3.5l1.5,4.8
		L123.1,54.9z M145.9,47.9l-1.5-4.8l11.4-3.5l1.5,4.8L145.9,47.9z M168.6,41l-1.5-4.8l11.4-3.5l1.5,4.8L168.6,41z M191.3,34
		l-1.5-4.8l11.4-3.5l1.5,4.8L191.3,34z M214,27l-1.5-4.8l11.4-3.5l1.5,4.8L214,27z M236.8,20.1l-1.5-4.8c4.1-1.2,7.9-2.4,11.4-3.5
		l1.5,4.8C244.7,17.7,240.9,18.8,236.8,20.1z M259.6,13.2l-1.4-4.8c9.3-2.8,11.1-3.3,11.7-3.4l1,4.9C270.5,10,268.6,10.5,259.6,13.2
		z M282.3,9.7l-0.1-5l11.9-0.2l0.1,5L282.3,9.7z M306.1,9.3l-0.1-5l11.9-0.2l0.1,5L306.1,9.3z M329.9,8.9l-0.1-5l11.9-0.2l0.1,5
		L329.9,8.9z M353.6,8.5l-0.1-5l11.9-0.2l0.1,5L353.6,8.5z M377.4,8.2l-0.1-5L389.2,3l0.1,5L377.4,8.2z M401.2,7.8l-0.1-5L413,2.6
		l0.1,5L401.2,7.8z M425,7.4l-0.1-5l11.8-0.2l0.1,5l0,0L425,7.4z M448.7,7l-0.1-5l11.9-0.2l0.1,5L448.7,7z M472.5,6.6l-0.1-5
		l11.9-0.2l0.1,5L472.5,6.6z M496.3,6.2l-0.1-5L508.1,1l0.1,5L496.3,6.2z M520,5.8l-0.1-5l11.9-0.2l0.1,5L520,5.8z"/>
</g>
</svg>
