<?xml version="1.0" encoding="utf-8"?>
<!-- Generator: Adobe Illustrator 21.0.2, SVG Export Plug-In . SVG Version: 6.00 Build 0)  -->
<svg version="1.1" id="Layer_1" xmlns="http://www.w3.org/2000/svg" xmlns:xlink="http://www.w3.org/1999/xlink" x="0px" y="0px"
	 viewBox="0 0 565 92.6" enable-background="new 0 0 565 92.6" xml:space="preserve">
<g>
	<path fill="#EA6217" d="M508.2,3.3c-2.9,0-6,0.1-9.2,0.2l-6.3,6.3l-18,18l-2.1,2.1l2.1-0.7l11.9-4.2l15.1-15.1L508.2,3.3z"/>
	<path fill="#EA6217" d="M510.8,9.8L500.5,20l13.9-4.9l5.3-5.3l6.7-6.7c-2.8,0-5.9,0.1-9.2,0.2L510.8,9.8z"/>
	<path fill="#EA6217" d="M535.6,2.9l-6.9,6.9l-0.4,0.4l1-0.4l12.9-4.6l2.5-2.5C542.5,2.7,539.4,2.8,535.6,2.9z"/>
	<path fill="#EA6217" d="M483.8,9.8l6.1-6.1c-3,0.1-6,0.1-9.2,0.2l-6,6l-29.9,29.9l13.9-4.9l16-16L483.8,9.8z"/>
	<path fill="#EA6217" d="M453.3,4.2c-3,0.1-6.1,0.1-9.2,0.2l-5.4,5.4l-36,36l-13.7,13.7l13.7-4.8l0.3-0.1l44.7-44.7L453.3,4.2z"/>
	<path fill="#EA6217" d="M471.6,3.9c-3,0.1-6.1,0.1-9.2,0.2l-5.7,5.7l-39.8,39.8l13.9-4.9l34.9-34.9L471.6,3.9z"/>
	<path fill="#EA6217" d="M411.8,9.8l4.9-4.9c-3,0.1-6.1,0.1-9.2,0.2l-4.7,4.7l-69.4,69.4l13.9-4.9l55.5-55.5L411.8,9.8z"/>
	<path fill="#EA6217" d="M429.8,9.8l5.2-5.2c-3,0.1-6.1,0.1-9.2,0.2l-5,5l-18,18l-41.5,41.5l13.9-4.9l27.6-27.6L429.8,9.8z"/>
	<path fill="#EA6217" d="M398.3,5.2c-3.1,0.1-6.1,0.1-9.2,0.2l-4.4,4.4l-54,54l-18,18l-7.3,7.3l13.9-4.9l2.3-2.3l9-9l63-63
		L398.3,5.2z"/>
	<path fill="#EA6217" d="M339.8,9.8l3.7-3.7c-3.1,0.1-6.2,0.1-9.2,0.2l-3.5,3.5l-72,72l-7.4,7.4l7.4,0.1l1.5,0l7.5-7.5l63-63
		L339.8,9.8z"/>
	<path fill="#EA6217" d="M357.8,9.8l4-4c-3.1,0.1-6.1,0.1-9.2,0.2l-3.8,3.8l-18,18l-54,54l-7.7,7.7l8.9,0.1l7.8-7.8l45-45L357.8,9.8
		z"/>
	<path fill="#EA6217" d="M375.8,9.8l4.3-4.3c-3.1,0.1-6.1,0.1-9.2,0.2l-4.1,4.1l-36,36l-36,36l-7.9,7.9l8.9,0.1l8.1-8.1l27-27
		L375.8,9.8z"/>
	<path fill="#EA6217" d="M267.8,9.8l2.5-2.5c0,0,0,0,0,0c-0.2,0-3.3,0.9-8.5,2.5c-0.9,0.3-1.9,0.6-2.9,0.9c-0.4,0.1-0.8,0.2-1.2,0.4
		l-70.8,70.8l-6.2,6.2l6.2,0.1l2.6,0l6.4-6.4l63-63L267.8,9.8z"/>
	<path fill="#EA6217" d="M285.8,9.8l2.8-2.8c-3.5,0.1-6.6,0.1-9.2,0.2l-2.6,2.6l-18,18l-54,54l-6.5,6.5l8.9,0.1l6.7-6.7l45-45
		L285.8,9.8z"/>
	<path fill="#EA6217" d="M303.8,9.8l3.1-3.1c-3.2,0.1-6.3,0.1-9.2,0.2l-2.9,2.9l-36,36l-36,36l-6.8,6.8l8.9,0.1l6.9-6.9l27-27
		L303.8,9.8z"/>
	<path fill="#EA6217" d="M321.8,9.8l3.4-3.4c-3.1,0.1-6.2,0.1-9.2,0.2l-3.2,3.2l-54,54l-18,18l-7.1,7.1l8.9,0.1l7.2-7.2l9-9
		L321.8,9.8z"/>
	<path fill="#EA6217" d="M192.8,30.7c-2,0.6-4,1.2-6,1.8c-2.3,0.7-4.6,1.4-7,2.1l-47,47l-5.4,5.4l8.9,0.1l5.5-5.5l45-45L192.8,30.7z
		"/>
	<path fill="#EA6217" d="M218.7,22.8c-4.2,1.3-8.5,2.6-13,4l-19,19l-36,36l-5.6,5.6l8.9,0.1l5.8-5.8l27-27L218.7,22.8z"/>
	<path fill="#EA6217" d="M244.6,14.9c-4,1.2-8.3,2.5-12.9,3.9l-44.9,44.9l-18,18l-5.9,5.9l8.9,0.1l6.1-6.1l9-9L244.6,14.9z"/>
	<path fill="#EA6217" d="M114.8,54.7C114.8,54.7,114.8,54.7,114.8,54.7c-4.4,1.4-8.8,2.7-13,4L78.8,81.8l-4.5,4.5l8.9,0.1l4.6-4.6
		L114.8,54.7L114.8,54.7z"/>
	<path fill="#EA6217" d="M140.8,46.7c-4.3,1.3-8.7,2.7-13,4l-13.1,13.1l-18,18L92,86.5l8.9,0.1l4.9-4.9l9-9L140.8,46.7z"/>
	<path fill="#EA6217" d="M153.8,42.7l-39.1,39.1l-5.1,5.1l5.1,0.1l3.8,0.1l5.2-5.2l43.1-43.1C162.5,40,158.2,41.4,153.8,42.7z"/>
	<path fill="#EA6217" d="M49.8,74.7l-7,7l-3.9,3.9l3.9,0.1l4.9,0.1l4.1-4.1l11-11C58.2,72.1,53.9,73.5,49.8,74.7z"/>
	<path fill="#EA6217" d="M75.8,66.7l-15,15L56.5,86l8.9,0.1l4.4-4.4l19.1-19.1C84.4,64.1,80,65.4,75.8,66.7z"/>
	<path fill="#EA6217" d="M23.8,82.8l-2.6,2.6l8.9,0.1l3.8-3.8l3-3c-3.7,1.1-7,2.1-9.8,3C25.8,82.1,24.7,82.4,23.8,82.8z"/>
</g>
</svg>
