<?xml version="1.0" encoding="utf-8"?>
<!-- Generator: Adobe Illustrator 21.0.2, SVG Export Plug-In . SVG Version: 6.00 Build 0)  -->
<svg version="1.1" id="Layer_1" xmlns="http://www.w3.org/2000/svg" xmlns:xlink="http://www.w3.org/1999/xlink" x="0px" y="0px"
	 viewBox="0 0 481.4 91.1" enable-background="new 0 0 481.4 91.1" xml:space="preserve">
<g>
	<polygon fill="#EA6217" points="19.8,28.3 0,23.7 20.2,21.4 20.4,23.3 20.9,23.5 20.6,24.9 20.8,26.3 20.3,26.4 	"/>
	<path fill="#EA6217" d="M449.8,56.3l-11.9-2.5l1-4.9l11.9,2.5L449.8,56.3z M426.1,51.3l-11.9-2.5l1-4.9l11.9,2.5L426.1,51.3z
		 M402.3,46.3l-11.9-2.5l1-4.9l11.9,2.5L402.3,46.3z M378.6,41.3l-11.9-2.5l1-4.9l11.9,2.5L378.6,41.3z M354.9,36.4L343,33.9l1-4.9
		l11.9,2.5L354.9,36.4z M331.1,31.4l-11.9-2.5l1-4.9l11.9,2.5L331.1,31.4z M307.4,26.4l-11.9-2.5l1-4.9l11.9,2.5L307.4,26.4z
		 M32.8,24.9l-0.6-5l12-1.4l0.6,5L32.8,24.9z M56.9,22.2l-0.6-5l12-1.4l0.6,5L56.9,22.2z M283.7,21.5L271.8,19l1-4.9l11.9,2.5
		L283.7,21.5z M81,19.4l-0.6-5l12-1.4l0.6,5L81,19.4z M105.1,16.6l-0.6-5l12-1.4l0.6,5L105.1,16.6z M260,16.5L248.1,14l1-4.9
		l11.9,2.5L260,16.5z M129.1,13.8l-0.6-5l12-1.4l0.6,5L129.1,13.8z M236.2,11.5L224.4,9l1-4.9l11.9,2.5L236.2,11.5z M153.2,11.1
		l-0.6-5l12-1.4l0.6,5L153.2,11.1z M177.3,8.3l-0.6-5l12-1.4l0.6,5L177.3,8.3z M212.5,6.5l-7.1-1.5l-4,0.5l-0.6-5l4.8-0.6l7.9,1.7
		L212.5,6.5z"/>
	<polygon fill="#EA6217" points="462.5,61 462.2,58.9 461.6,58.7 461.9,57.4 461.7,56.1 462.2,56 462.7,53.9 481.4,57.8 	"/>
	<path fill="#EA6217" d="M294.1,89.8l-0.8-4.9l12-2.1l0.8,4.9L294.1,89.8z M281.2,89.7l-11.9-2.8l1.1-4.9l11.9,2.8L281.2,89.7z
		 M318.2,85.7l-0.8-4.9l12-2.1l0.8,4.9L318.2,85.7z M257.4,84.1l-11.9-2.8l1.1-4.9l11.9,2.8L257.4,84.1z M342.2,81.6l-0.8-4.9
		l12-2.1l0.8,4.9L342.2,81.6z M233.6,78.6l-11.9-2.8l1.1-4.9l11.9,2.8L233.6,78.6z M366.3,77.5l-0.8-4.9l12-2.1l0.8,4.9L366.3,77.5z
		 M390.4,73.4l-0.8-4.9l12-2.1l0.8,4.9L390.4,73.4z M209.9,73L198,70.2l1.1-4.9l11.9,2.8L209.9,73z M414.4,69.2l-0.8-4.9l12-2.1
		l0.8,4.9L414.4,69.2z M186.1,67.4l-11.9-2.8l1.1-4.9l11.9,2.8L186.1,67.4z M438.5,65.1l-0.8-4.9l12-2.1l0.8,4.9L438.5,65.1z
		 M162.4,61.8L150.5,59l1.1-4.9l11.9,2.8L162.4,61.8z M138.6,56.2l-11.9-2.8l1.1-4.9l11.9,2.8L138.6,56.2z M114.8,50.7L103,47.9
		l1.1-4.9l11.9,2.8L114.8,50.7z M91.1,45.1l-11.9-2.8l1.1-4.9l11.9,2.8L91.1,45.1z M67.3,39.5l-11.9-2.8l1.1-4.9l11.9,2.8L67.3,39.5
		z M43.6,33.9l-11.9-2.8l1.1-4.9L44.7,29L43.6,33.9z"/>
</g>
</svg>
