<?xml version="1.0" encoding="utf-8"?>
<!-- Generator: Adobe Illustrator 21.0.2, SVG Export Plug-In . SVG Version: 6.00 Build 0)  -->
<svg version="1.1" id="Layer_1" xmlns="http://www.w3.org/2000/svg" xmlns:xlink="http://www.w3.org/1999/xlink" x="0px" y="0px"
	 viewBox="0 0 481.4 91.1" enable-background="new 0 0 481.4 91.1" xml:space="preserve">
<g>
	<polygon fill="#EA6217" points="436.1,51 433,50.3 428.6,49.4 410.8,67.2 421.7,65.4 433,54 	"/>
	<polygon fill="#EA6217" points="433,63 432.5,63.5 433,63.4 443.4,61.7 451,54.1 443.5,52.5 	"/>
	<polygon fill="#EA6217" points="458.4,55.6 454.3,59.8 465.1,57.9 465.9,57.2 	"/>
	<polygon fill="#EA6217" points="361.7,35.4 361,35.2 354.2,33.8 307,81 302.2,85.8 313.1,84 316,81 361,36 	"/>
	<polygon fill="#EA6217" points="376.6,38.5 369.1,36.9 361,45 325,81 323.9,82.1 330.3,81 334.8,80.3 361,54 	"/>
	<polygon fill="#EA6217" points="384,40.1 361,63 345.7,78.4 356.5,76.5 361,72 391.4,41.6 	"/>
	<polygon fill="#EA6217" points="398.9,43.2 367.4,74.7 378.2,72.8 406.3,44.7 	"/>
	<polygon fill="#EA6217" points="413.8,46.3 389.1,71 400,69.1 421.2,47.9 	"/>
	<polygon fill="#EA6217" points="302.1,22.9 294.7,21.3 289,27 238.7,77.3 246,79 289,36 	"/>
	<polygon fill="#EA6217" points="317,26 309.6,24.5 289,45 253.3,80.8 254.5,81 260.6,82.5 262,81 289,54 	"/>
	<polygon fill="#EA6217" points="331.9,29.1 324.5,27.6 289,63 271,81 267.9,84.2 275.2,85.9 280,81 289,72 	"/>
	<polygon fill="#EA6217" points="339.4,30.7 289,81 282.5,87.6 286.4,88.5 289,88.1 291.4,87.7 298,81 346.8,32.3 	"/>
	<polygon fill="#EA6217" points="226,9 227.7,7.3 220.3,5.8 217,9 165.8,60.2 173.1,61.9 217,18 	"/>
	<polygon fill="#EA6217" points="242.6,10.4 235.9,9 235.2,8.9 235,9 217,27 180.4,63.6 187.7,65.3 217,36 	"/>
	<polygon fill="#EA6217" points="257.5,13.6 250.1,12 217,45 195,67.1 202.3,68.8 217,54 	"/>
	<polygon fill="#EA6217" points="264.9,15.1 217,63 209.6,70.5 216.9,72.2 217,72 272.4,16.7 	"/>
	<polygon fill="#EA6217" points="279.8,18.2 224.1,73.9 231.4,75.6 287.3,19.8 	"/>
	<polygon fill="#EA6217" points="195.4,3.6 185.2,4.8 181,9 145,45 136.7,53.4 144,55.1 145,54 190,9 	"/>
	<polygon fill="#EA6217" points="212.9,4.2 205.4,2.6 199,9 151.3,56.8 158.6,58.5 208,9 	"/>
	<polygon fill="#EA6217" points="154,9 154.7,8.3 148.6,9 145,9.4 144.6,9.5 107.5,46.5 114.8,48.2 145,18 	"/>
	<polygon fill="#EA6217" points="172,9 175.1,6 164.9,7.2 163,9 145,27 122.1,49.9 129.4,51.7 145,36 	"/>
	<polygon fill="#EA6217" points="73.4,17.7 73,17.7 63.2,18.9 49.2,32.8 56.5,34.5 73,18 	"/>
	<polygon fill="#EA6217" points="83.5,16.5 73,27 63.8,36.2 71.1,38 73,36 93.7,15.4 	"/>
	<polygon fill="#EA6217" points="103.9,14.2 78.4,39.7 85.7,41.4 114,13 	"/>
	<polygon fill="#EA6217" points="124.2,11.8 93,43.1 100.2,44.8 134.4,10.7 	"/>
	<polygon fill="#EA6217" points="20.1,26 27.4,27.7 32.7,22.4 22.5,23.6 	"/>
	<polygon fill="#EA6217" points="42.8,21.2 34.7,29.4 41.9,31.1 53,20 	"/>
</g>
</svg>
