<?xml version="1.0" encoding="utf-8"?>
<!-- Generator: Adobe Illustrator 21.0.2, SVG Export Plug-In . SVG Version: 6.00 Build 0)  -->
<svg version="1.1" id="Layer_1" xmlns="http://www.w3.org/2000/svg" xmlns:xlink="http://www.w3.org/1999/xlink" x="0px" y="0px"
	 viewBox="0 0 301 51.1" enable-background="new 0 0 301 51.1" xml:space="preserve">
<rect fill="#3C9CD0" width="301" height="51.1"/>
<g>
	<path fill="#FFFFFF" d="M24.1,18.6h8.9V20h-7.5v4.4h7.3v1.3h-7.3v5H33v1.3h-9V18.6z"/>
	<path fill="#FFFFFF" d="M39,27.8l-3,4.2h-1.5l3.8-5.2l-3.4-4.8h1.5l2.8,3.8l2.7-3.8h1.5l-3.5,4.8l3.8,5.2h-1.5L39,27.8z"/>
	<path fill="#FFFFFF" d="M45.3,22.1l1.1-0.1l0.1,1.2c0.5-1,1.7-1.4,4-1.4c3.3,0,4.3,2.1,4.3,5.2c0,3.1-1,5.2-4.3,5.2
		c-2.2,0-3.2-0.4-3.8-1.3v4.2h-1.4V22.1z M53.4,27.1c0-2.4-0.7-4-3.2-4c-2.5,0-3.5,1-3.5,4c0,3,1,3.9,3.5,3.9
		C52.7,31,53.4,29.5,53.4,27.1z"/>
	<path fill="#FFFFFF" d="M57,29.7V18h1.4v11.5c0,1,0.1,1.3,1.2,1.3c0,0,0.4,0,0.4,0v1.2c-0.1,0-0.5,0-0.9,0
		C57.5,32.1,57,31.4,57,29.7z"/>
	<path fill="#FFFFFF" d="M61.3,27.1c0-3.4,1.4-5.2,4.8-5.2c3.5,0,4.8,1.8,4.8,5.2c0,3.4-1.4,5.2-4.8,5.2
		C62.6,32.3,61.3,30.5,61.3,27.1z M69.5,27.1c0-2.6-0.9-4-3.4-4c-2.5,0-3.4,1.4-3.4,4c0,2.6,0.9,3.9,3.4,3.9
		C68.6,31,69.5,29.6,69.5,27.1z"/>
	<path fill="#FFFFFF" d="M73.1,22.1l1.1-0.1l0.1,1.3c0.4-0.8,1.6-1.5,3.5-1.5v1.4c-2.4,0-3.3,1.4-3.3,3.4v5.4h-1.4V22.1z"/>
	<path fill="#FFFFFF" d="M78.8,29.3c0-2.8,1.6-3.7,6.7-3.7h0.6c0-1.7-0.4-2.5-2.7-2.5c-1.3,0-2.4,0.5-3,0.9l-0.7-1.1
		c0.7-0.5,2.2-1.1,3.8-1.1c3.4,0,3.9,1.2,3.9,4v3.8c0,1.1,0.1,1.2,1,1.2v1.2c-0.1,0-0.3,0-0.5,0c-1.2,0-1.5-0.4-1.6-1.3
		c-0.6,0.9-1.7,1.4-3.9,1.4C79.5,32.3,78.8,31,78.8,29.3z M86.1,27.6v-0.7h-0.5c-4.4,0-5.4,0.5-5.4,2.4c0,1.2,0.5,1.9,2.4,1.9
		C85.1,31.1,86.1,30,86.1,27.6z"/>
	<path fill="#FFFFFF" d="M94.9,22.1l1.1-0.1l0.1,1.1c0.4-0.7,1.4-1.3,3.6-1.3c2.2,0,2.8,0.6,3.1,1.4c0.5-0.8,1.6-1.4,3.9-1.4
		c3.2,0,3.5,1.7,3.5,4.1v6.1h-1.4v-5.9c0-1.8-0.1-3-2.5-3c-2.7,0-3.1,1.4-3.1,3.3v5.6h-1.4v-5.9c0-1.8-0.1-3-2.5-3
		c-2.7,0-3.1,1.4-3.1,3.3v5.6h-1.4V22.1z"/>
	<path fill="#FFFFFF" d="M112.2,29.3c0-2.8,1.6-3.7,6.7-3.7h0.6c0-1.7-0.4-2.5-2.7-2.5c-1.3,0-2.4,0.5-3,0.9l-0.7-1.1
		c0.7-0.5,2.2-1.1,3.8-1.1c3.4,0,3.9,1.2,3.9,4v3.8c0,1.1,0.1,1.2,1,1.2v1.2c-0.1,0-0.3,0-0.5,0c-1.2,0-1.5-0.4-1.6-1.3
		c-0.6,0.9-1.7,1.4-3.9,1.4C112.9,32.3,112.2,31,112.2,29.3z M119.5,27.6v-0.7h-0.5c-4.4,0-5.4,0.5-5.4,2.4c0,1.2,0.5,1.9,2.4,1.9
		C118.4,31.1,119.5,30,119.5,27.6z M118.4,17.2h1.7l-3.1,2.8h-1.3L118.4,17.2z"/>
	<path fill="#FFFFFF" d="M123.3,31.1l0.7-1.1c1.2,0.8,2.5,1,3.5,1c1.8,0,2.6-0.3,2.6-1.8c0-1.1-0.7-1.3-2.6-1.7
		c-2.3-0.5-3.8-0.9-3.8-3c0-1.7,1-2.7,3.8-2.7c1.5,0,2.7,0.3,3.7,0.9l-0.7,1.1c-0.8-0.4-1.8-0.7-3-0.7c-1.9,0-2.4,0.6-2.4,1.5
		c0,1.1,0.7,1.4,2.5,1.7c2.4,0.5,3.9,0.8,3.9,3c0,2.3-1.3,3-4,3C126.2,32.3,124.7,32,123.3,31.1z"/>
	<path fill="#FFFFFF" d="M137.4,27c0-3.1,1-5.2,4.3-5.2c2.2,0,3.2,0.4,3.8,1.3V18h1.4v14l-1.1,0.1l-0.2-1.3c-0.6,1-1.7,1.4-3.9,1.4
		C138.4,32.3,137.4,30.2,137.4,27z M145.5,27c0-2.9-1-3.9-3.5-3.9c-2.5,0-3.2,1.5-3.2,3.9c0,2.5,0.7,4,3.2,4
		C144.5,31,145.5,30,145.5,27z"/>
	<path fill="#FFFFFF" d="M149.1,27.1c0-2.9,0.9-5.2,4.7-5.2c4,0,4.2,2.8,4.1,5.7h-7.5c0.1,2.1,0.7,3.6,3.5,3.6c1.6,0,2.4-0.4,3.2-1
		l0.7,1c-1,0.8-2.1,1.3-4,1.3C149.9,32.3,149.1,30,149.1,27.1z M150.4,26.3h6.2c-0.1-1.8-0.2-3.2-2.8-3.2
		C151.3,23.1,150.6,24.4,150.4,26.3z"/>
	<path fill="#FFFFFF" d="M164.7,29.7V18h1.4v11.5c0,1,0.1,1.3,1.2,1.3c0,0,0.4,0,0.4,0v1.2c-0.1,0-0.5,0-0.9,0
		C165.1,32.1,164.7,31.4,164.7,29.7z"/>
	<path fill="#FFFFFF" d="M169.2,29.3c0-2.8,1.6-3.7,6.7-3.7h0.6c0-1.7-0.4-2.5-2.7-2.5c-1.3,0-2.4,0.5-3,0.9l-0.7-1.1
		c0.7-0.5,2.2-1.1,3.8-1.1c3.4,0,3.9,1.2,3.9,4v3.8c0,1.1,0.1,1.2,1,1.2v1.2c-0.1,0-0.3,0-0.5,0c-1.2,0-1.5-0.4-1.6-1.3
		c-0.6,0.9-1.7,1.4-3.9,1.4C169.9,32.3,169.2,31,169.2,29.3z M176.5,27.6v-0.7h-0.5c-4.4,0-5.4,0.5-5.4,2.4c0,1.2,0.5,1.9,2.4,1.9
		C175.4,31.1,176.5,30,176.5,27.6z"/>
	<path fill="#FFFFFF" d="M185,18.6h9.2v2.1h-7v3.6h6.8v2.1h-6.8v5.6H185V18.6z"/>
	<path fill="#FFFFFF" d="M195.6,25.3h6.3v2h-6.3V25.3z"/>
	<path fill="#FFFFFF" d="M204.8,20.7h-2.4v-2h4.5v13.4h-2.1V20.7z"/>
	<path fill="#FFFFFF" d="M209,30.9l1.1-1.7c1.1,0.6,2.2,1.2,3.9,1.2c1.8,0,3.2-0.4,3.2-2.7c0-2.2-1.3-2.7-3.1-2.7
		c-1.2,0-2,0.2-2.8,0.6l-1.8-0.5l0.3-6.4h8.4v1.9h-6.5l-0.2,3.1c0.6-0.3,1.7-0.5,3-0.5c2.6,0,4.7,0.7,4.7,4.5c0,3.9-2.2,4.6-5.3,4.6
		C211.8,32.3,210.2,31.6,209,30.9z"/>
	<path fill="#FFFFFF" d="M221,25.4c0-4.3,1.3-6.9,5.5-6.9c4.2,0,5.5,2.6,5.5,6.9c0,4.3-1.3,6.9-5.5,6.9
		C222.2,32.3,221,29.7,221,25.4z M229.8,25.4c0-3-0.6-4.9-3.3-4.9c-2.8,0-3.4,1.9-3.4,4.9c0,3,0.6,5,3.4,5
		C229.3,30.3,229.8,28.3,229.8,25.4z"/>
</g>
<path fill="#FFFFFF" d="M264.3,39.5c-7.7,0-14-6.3-14-14s6.3-14,14-14s14,6.3,14,14S272,39.5,264.3,39.5z M264.3,12.5
	c-7.2,0-13,5.8-13,13s5.8,13,13,13s13-5.8,13-13S271.5,12.5,264.3,12.5z"/>
<polygon fill="#FFFFFF" points="262.9,32.1 261,30.2 265.6,25.5 261,20.9 262.9,18.9 269.5,25.5 "/>
</svg>
